<?xml version="1.0" encoding="utf-8"?>
<svg viewBox="112.337 291.868 936.704 166.932" width="936.704" height="166.932" xmlns="http://www.w3.org/2000/svg">
  <defs>
    <clipPath id="clipPath14" clipPathUnits="userSpaceOnUse">
      <path id="path12" d="M 0,0 H 595.22 V 842 H 0 Z"/>
    </clipPath>
  </defs>
  <g clip-path="url(#clipPath14)" transform="matrix(0, 1.333333, 1.333333, 0, 0, 0)" id="g10">
    <g transform="translate(312.58,95.788)" id="g16">
      <path id="path18" style="fill:#231f20;fill-opacity:1;fill-rule:nonzero;stroke:none" d="M 0,0 V 16.232 L -52.577,8.317 V 8.047 Z M 30.181,27.898 V 20.925 L 6.976,17.304 V -1.073 l 23.205,-3.488 v -6.974 L -60.358,2.281 v 11.802 l 90.539,13.815"/>
    </g>
    <g transform="translate(293.936,154.264)" id="g20">
      <path id="path22" style="fill:#231f20;fill-opacity:1;fill-rule:nonzero;stroke:none" d="M 0,0 C 0,6.571 -5.23,11.802 -11.803,11.802 H -22.935 C -29.508,11.802 -34.737,6.571 -34.737,0 V -8.452 H 0 Z M 48.825,18.779 V 11.802 H 18.778 C 12.207,11.802 6.976,6.571 6.976,0 v -8.452 h 41.849 v -6.974 H -41.714 V 0 c 0,10.327 8.452,18.779 18.779,18.779 h 11.132 c 6.304,0 11.937,-3.221 15.29,-7.914 3.489,4.693 8.987,7.914 15.291,7.914 h 30.047"/>
    </g>
    <g transform="translate(282.536,218.908)" id="g24">
      <path id="path26" style="fill:#231f20;fill-opacity:1;fill-rule:nonzero;stroke:none" d="m 0,0 h -14.219 c -5.765,0 -10.461,-4.693 -10.461,-10.462 0,-5.766 4.696,-10.463 10.461,-10.463 h 58.348 c 5.767,0 10.461,4.697 10.461,10.463 C 54.59,-4.693 49.896,0 44.129,0 H 31.788 v 6.977 h 12.341 c 9.657,0 17.435,-7.782 17.435,-17.439 0,-9.657 -7.778,-17.436 -17.435,-17.436 h -58.348 c -9.656,0 -17.435,7.779 -17.435,17.436 0,9.657 7.779,17.439 17.435,17.439 H -0.805 L 0,0"/>
    </g>
    <g transform="translate(252.221,278.723)" id="g28">
      <path id="path30" style="fill:#231f20;fill-opacity:1;fill-rule:nonzero;stroke:none" d="M 0,0 H 90.539 V -6.973 H 48.69 v -20.924 h 41.849 v -6.974 H 0 v 6.974 H 41.714 V -6.973 L 0,-6.973 V 0"/>
    </g>
    <path id="path32" style="fill:#231f20;fill-opacity:1;fill-rule:nonzero;stroke:none" d="m 252.221,298.839 h 90.539 v 6.974 h -90.539 z"/>
    <g transform="translate(259.199,353.961)" id="g34">
      <path id="path36" style="fill:#231f20;fill-opacity:1;fill-rule:nonzero;stroke:none" d="m 0,0 v -12.472 h 83.562 v -7.109 H 0 v -12.61 H -6.977 V 0 H 0"/>
    </g>
    <g transform="translate(259.199,376.892)" id="g38">
      <path id="path40" style="fill:#231f20;fill-opacity:1;fill-rule:nonzero;stroke:none" d="m 0,0 h 34.737 v 16.231 h 7.11 V 0 h 34.739 v 23.069 h 6.976 V -6.973 H -6.977 v 28.97 H 0 L 0,0"/>
    </g>
    <g transform="translate(282.536,442.612)" id="g42">
      <path id="path44" style="fill:#231f20;fill-opacity:1;fill-rule:nonzero;stroke:none" d="m 0,0 h -14.219 c -5.765,0 -10.461,-4.693 -10.461,-10.463 0,-5.765 4.696,-10.461 10.461,-10.461 h 58.348 c 5.767,0 10.461,4.696 10.461,10.461 C 54.59,-4.693 49.896,0 44.129,0 H 31.788 v 6.977 h 12.341 c 9.657,0 17.435,-7.782 17.435,-17.44 0,-9.656 -7.778,-17.435 -17.435,-17.435 h -58.348 c -9.656,0 -17.435,7.779 -17.435,17.435 0,9.658 7.779,17.44 17.435,17.44 H -0.805 L 0,0"/>
    </g>
    <g transform="translate(259.199,557.778)" id="g46">
      <path id="path48" style="fill:#231f20;fill-opacity:1;fill-rule:nonzero;stroke:none" d="m 0,0 v -12.475 h 83.562 v -7.108 H 0 V -32.191 H -6.977 V 0 H 0"/>
    </g>
    <g transform="translate(252.221,608.34)" id="g50">
      <path id="path52" style="fill:#231f20;fill-opacity:1;fill-rule:nonzero;stroke:none" d="m 0,0 h 74.443 c 9.657,0 17.435,-7.78 17.435,-17.436 0,-9.657 -7.778,-17.435 -17.435,-17.435 H 0 v 6.973 h 74.443 c 5.767,0 10.461,4.693 10.461,10.462 0,5.766 -4.694,10.462 -10.461,10.462 L 0,-6.974 V 0"/>
    </g>
    <g transform="translate(293.936,643.608)" id="g54">
      <path id="path56" style="fill:#231f20;fill-opacity:1;fill-rule:nonzero;stroke:none" d="M 0,0 C 0,6.574 -5.23,11.805 -11.803,11.805 H -22.935 C -29.508,11.805 -34.737,6.574 -34.737,0 V -8.449 H 0 Z M 48.825,18.779 V 11.805 H 18.778 C 12.207,11.805 6.976,6.574 6.976,0 v -8.449 h 41.849 v -6.974 H -41.714 V 0 c 0,10.329 8.452,18.779 18.779,18.779 h 11.132 c 6.304,0 11.937,-3.219 15.29,-7.915 3.489,4.696 8.987,7.915 15.291,7.915 h 30.047"/>
    </g>
    <g transform="translate(259.199,688)" id="g58">
      <path id="path60" style="fill:#231f20;fill-opacity:1;fill-rule:nonzero;stroke:none" d="m 0,0 h 34.737 v 16.231 h 7.11 V 0 h 34.739 v 23.07 h 6.976 V -6.974 H -6.977 V 21.997 H 0 L 0,0"/>
    </g>
    <g transform="translate(285.621,729.176)" id="g62">
      <path id="path64" style="fill:#231f20;fill-opacity:1;fill-rule:nonzero;stroke:none" d="m 0,0 c 0,0 -4.828,-4.024 -11.266,-4.024 h -6.038 c -9.656,0 -17.435,7.779 -17.435,17.436 0,9.657 7.779,17.435 17.435,17.435 h 11.269 l 0.804,-6.973 h -12.073 c -5.765,0 -10.461,-4.696 -10.461,-10.462 0,-5.768 4.696,-10.462 10.461,-10.462 h 6.038 c 3.889,0 6.706,2.412 6.706,2.412 l 25.349,21.327 c 0,0 4.964,4.158 11.535,4.158 h 8.72 c 9.657,0 17.435,-7.778 17.435,-17.435 0,-9.657 -7.778,-17.436 -17.435,-17.436 H 27.765 L 26.959,2.95 h 14.085 c 5.767,0 10.461,4.694 10.461,10.462 0,5.766 -4.694,10.462 -10.461,10.462 h -8.72 c -3.887,0 -6.974,-2.548 -6.974,-2.548 L 0,0"/>
    </g>
    <g transform="translate(250.881,489.055)" id="g66">
      <path id="path68" style="fill:#231f20;fill-opacity:1;fill-rule:nonzero;stroke:none" d="m 0,0 c 0,-3.937 1.308,-7.548 3.495,-10.463 l -35.475,-0.009 0.818,-6.974 48.597,0.01 h 74.444 v 6.973 H 17.435 c -5.767,0 -10.461,4.697 -10.461,10.463 0,5.769 4.694,10.462 10.461,10.462 h 74.444 v 6.973 H 17.435 C 7.779,17.435 0,9.656 0,0"/>
    </g>
    <g transform="translate(255.941,780.83)" id="g70">
      <path id="path72" style="fill:#231f20;fill-opacity:1;fill-rule:nonzero;stroke:none" d="m 0,0 c -0.605,0 -1.092,-0.488 -1.092,-1.092 v -1.842 h 2.758 v 1.842 C 1.666,-0.488 1.178,0 0.574,0 Z M 3.738,0 C 3.133,0 2.644,-0.488 2.644,-1.092 V -2.934 H 6.152 V -3.881 H -2.07 v 2.789 c 0,1.122 0.92,2.039 2.04,2.039 h 0.633 c 0.635,0 1.179,-0.288 1.553,-1.003 0.373,0.715 0.949,1.003 1.553,1.003 H 6.152 L 6.152,0 Z M 8.51,-1.465 c 0,3.564 -2.903,6.469 -6.47,6.469 -3.563,0 -6.468,-2.905 -6.468,-6.469 0,-3.565 2.905,-6.469 6.468,-6.469 3.567,0 6.47,2.904 6.47,6.469 z m -13.887,0 c 0,4.083 3.335,7.416 7.417,7.416 4.084,0 7.419,-3.333 7.419,-7.416 0,-4.083 -3.335,-7.42 -7.419,-7.42 -4.082,0 -7.417,3.337 -7.417,7.42"/>
    </g>
  </g>
</svg>