<svg xmlns="http://www.w3.org/2000/svg" width="255" height="91" viewBox="0 0 255 91" fill="none"><path d="M19.7392 58.7515L20.9226 55.6747H20.2124L13.8222 71.5323C10.272 80.5262 7.90506 85.2598 4.11816 87.6266H15.0056C12.8754 86.4432 11.692 84.5498 11.692 81.2362C11.692 77.9227 13.8221 73.6625 15.4788 69.1655C15.7155 68.2188 16.1889 67.5088 16.4256 66.7987L18.5558 61.355C18.5558 61.5917 19.0292 61.1184 19.7392 58.7515Z" fill="#3C3C3B"></path><path opacity="0.4" d="M146.6 89.9932L118.672 47.864C133.109 46.9173 140.683 41.947 140.683 24.6693C140.683 12.3619 136.896 5.26145 129.086 2.65796C148.73 4.07805 158.671 10.9418 158.671 23.2492C158.671 28.9295 156.541 34.3732 153.464 37.4501C149.914 40.5269 146.837 42.657 139.263 44.5505L135.24 45.7339L165.061 88.0998C165.535 88.8099 166.245 89.5199 166.955 89.9932H146.6Z" fill="#3C3C3B"></path><path d="M88.1399 90.7194C91.9268 88.826 93.1103 85.0391 93.1103 76.992V17.3483C93.1103 9.53787 91.9269 5.27764 87.9033 2.91083H114.175C111.808 4.09423 109.915 6.22435 109.915 10.958V77.2286C109.915 85.0391 111.098 88.5893 115.122 90.4828H88.1399V90.7194Z" fill="#3C3C3B"></path><path opacity="0.4" d="M170.269 90.4687C173.582 88.5752 175.002 85.4984 175.002 79.3447V14.0207C175.002 7.86702 173.582 4.55348 170.505 2.66003H184.469C185.653 4.31683 191.03 10.9439 191.807 12.1273C191.595 13.5186 191.807 13.1963 191.807 14.9674V80.2914C191.807 85.9717 193.463 88.8119 197.014 90.4687H170.269ZM228.019 90.4687C228.965 89.7586 229.439 88.5752 229.439 86.9184C229.439 84.315 227.782 82.1848 225.415 78.8713L198.67 45.4993L209.558 34.3753L253.344 88.5752C253.817 89.2853 254.527 89.7586 255 90.232H228.019V90.4687Z" fill="#3C3C3B"></path><path d="M57.8441 90.4684H84.3524C80.8021 87.6282 77.9619 81.9478 73.465 71.2972L43.4066 0.766235L35.3594 20.4108C35.3594 20.4108 60.2109 81.4745 60.2109 84.788C60.4476 87.6282 59.2642 89.5217 57.8441 90.4684Z" fill="#3C3C3B"></path><path fill-rule="evenodd" clip-rule="evenodd" d="M19.4953 54.6127H22.4703L20.7457 59.0965C20.386 60.2897 20.07 61.0647 19.8172 61.5342C19.7168 61.7207 19.5776 61.9541 19.393 62.1335L17.4248 67.1631C17.3078 67.507 17.1444 67.855 17.0049 68.152C16.9744 68.2172 16.9449 68.2798 16.9174 68.3395C16.7473 68.7081 16.6037 69.0496 16.5101 69.424L16.4962 69.4797L16.4763 69.5337C16.0658 70.648 15.6273 71.746 15.2047 72.8043L15.1754 72.8776C14.7417 73.9639 14.3266 75.0056 13.9636 76.0074C13.2298 78.0328 12.755 79.7778 12.755 81.237C12.755 82.7699 13.0288 83.885 13.4843 84.724C13.9343 85.553 14.6023 86.1875 15.522 86.6984L19.107 88.6901H0.413086L3.55527 86.7262C5.25072 85.6665 6.68166 84.0485 8.13981 81.5325C9.60497 79.0044 11.0594 75.6386 12.834 71.1429L12.8368 71.1359L19.4953 54.6127ZM10.6308 81.4208C10.4138 81.8297 10.1967 82.2221 9.9787 82.5982C9.06746 84.1705 8.12674 85.4838 7.0849 86.5647H12.1469C11.9532 86.3071 11.776 86.032 11.6164 85.738C10.9707 84.5486 10.652 83.1203 10.6308 81.4208Z" fill="#3C3C3B"></path></svg>